<svg xmlns="http://www.w3.org/2000/svg" xmlns:xlink="http://www.w3.org/1999/xlink" viewBox="0 0 1000 1000"><defs><style>.cls-1{fill:#34363b;}.cls-2{fill:url(#linear-gradient);}.cls-3{fill:url(#linear-gradient-2);}.cls-4{fill:url(#linear-gradient-3);}.cls-5{fill:url(#linear-gradient-4);}.cls-6{fill:url(#linear-gradient-5);}.cls-7{fill:url(#linear-gradient-6);}.cls-8{fill:url(#linear-gradient-7);}.cls-9{fill:url(#linear-gradient-8);}.cls-10{fill:url(#linear-gradient-9);}.cls-11{fill:url(#linear-gradient-10);}.cls-12,.cls-14{font-size:162.34px;}.cls-12{fill:#fff;}.cls-12,.cls-13,.cls-14,.cls-15,.cls-16,.cls-17,.cls-18,.cls-19,.cls-20{font-family:Oswald-Medium, Oswald;}.cls-13{font-size:162.34px;}.cls-13,.cls-14,.cls-15,.cls-16,.cls-17,.cls-18,.cls-19,.cls-20{fill:#aaa;}.cls-15{font-size:141.87px;}.cls-16{font-size:143.02px;}.cls-17{font-size:143.31px;text-decoration:underline;}.cls-18{font-size:143.06px;}.cls-19{font-size:147px;}.cls-20{font-size:143.26px;}</style><linearGradient id="linear-gradient" x1="495.01" y1="1017.32" x2="969.01" y2="543.32" gradientUnits="userSpaceOnUse"><stop offset="0" stop-color="#a61e58"/><stop offset="1" stop-color="#88194b"/></linearGradient><linearGradient id="linear-gradient-2" x1="684.48" y1="748.54" x2="1142.37" y2="290.65" gradientUnits="userSpaceOnUse"><stop offset="0" stop-color="#700f39"/><stop offset="1" stop-color="#2e1020"/></linearGradient><linearGradient id="linear-gradient-3" x1="-110.05" y1="643.53" x2="629.91" y2="-96.43" gradientUnits="userSpaceOnUse"><stop offset="0" stop-color="#5c0938"/><stop offset="1" stop-color="#711345"/></linearGradient><linearGradient id="linear-gradient-4" x1="523.19" y1="318.32" x2="945.84" y2="-104.34" gradientUnits="userSpaceOnUse"><stop offset="0" stop-color="#a01e56"/><stop offset="1" stop-color="#85184a"/></linearGradient><linearGradient id="linear-gradient-5" x1="-154.12" y1="767.09" x2="222.76" y2="390.22" gradientUnits="userSpaceOnUse"><stop offset="0" stop-color="#7a1442"/><stop offset="1" stop-color="#851747"/></linearGradient><linearGradient id="linear-gradient-6" x1="237.74" y1="920.76" x2="459.76" y2="698.74" gradientUnits="userSpaceOnUse"><stop offset="0" stop-color="#660c38"/><stop offset="1" stop-color="#590531"/></linearGradient><linearGradient id="linear-gradient-7" x1="568.41" y1="477.4" x2="953.43" y2="92.39" xlink:href="#linear-gradient-6"/><linearGradient id="linear-gradient-8" x1="211.48" y1="993.01" x2="656.94" y2="547.54" xlink:href="#linear-gradient-5"/><linearGradient id="linear-gradient-9" x1="-5.24" y1="618.22" x2="440.69" y2="172.29" xlink:href="#linear-gradient-5"/><linearGradient id="linear-gradient-10" x1="286.05" y1="760.07" x2="872.43" y2="173.7" gradientUnits="userSpaceOnUse"><stop offset="0" stop-color="#540832"/><stop offset="1" stop-color="#5e0835"/></linearGradient></defs><title>13</title><g id="Layer_2" data-name="Layer 2"><g id="Layer_1-2" data-name="Layer 1"><rect class="cls-1" width="1000" height="1000"/><polygon class="cls-2" points="500 1000 716.33 625.3 933.01 750.01 500 1000"/><polygon class="cls-3" points="716.33 625.3 933.01 249.99 933.01 750.01 716.33 625.3"/><polygon class="cls-4" points="66.99 249.99 500 0 500 249.99 66.99 249.99"/><polygon class="cls-5" points="500 249.99 500 0 933.01 249.99 500 249.99"/><polygon class="cls-6" points="66.99 750.01 66.99 249.99 283.67 625.3 66.99 750.01"/><polygon class="cls-7" points="66.99 750.01 283.67 625.3 500 1000 66.99 750.01"/><polygon class="cls-8" points="500 250.64 500 249.99 933.01 249.99 716.33 625.3 716.31 625.3 500 250.64"/><polygon class="cls-9" points="283.67 625.3 716.33 625.3 500 1000 283.67 625.3"/><polygon class="cls-10" points="66.99 249.99 500 249.99 500 250.64 283.69 625.3 283.67 625.3 66.99 249.99"/><polygon class="cls-11" points="283.69 625.3 500 250.64 716.31 625.3 283.69 625.3"/><text class="cls-12" transform="translate(427.88 563.53)">13</text><text class="cls-13" transform="translate(641.66 380.15) rotate(60)">5</text><text class="cls-13" transform="translate(306.49 469.92) rotate(-60)">11</text><text class="cls-14" transform="translate(531.77 686.69) rotate(180)">1</text><text class="cls-15" transform="matrix(1.15, 0, 0.65, 0.76, 608.17, 208.33)">18</text><text class="cls-16" transform="matrix(1.14, 0, -0.65, 0.76, 277.69, 209.44)">4</text><text class="cls-17" transform="matrix(-0.56, -0.98, 0.32, -0.95, 176.87, 525.49)">9</text><text class="cls-18" transform="matrix(-0.56, 0.98, -0.32, -0.95, 878.64, 427.38)">15</text><text class="cls-19" transform="matrix(-0.54, -0.96, 0.98, 0.19, 375.25, 866.54)">19</text><text class="cls-20" transform="matrix(-0.57, 1, -0.98, 0.19, 679.33, 770.56)">7</text></g></g></svg>